<svg aria-hidden="true" style="position: absolute; width: 0; height: 0; overflow: hidden;" version="1.1" xmlns="http://www.w3.org/2000/svg" xmlns:xlink="http://www.w3.org/1999/xlink">
<defs>
<symbol id="icon-logo" viewBox="0 0 42 32">
<path fill="#fff" style="fill: var(--color1, #fff)" d="M8.608 13.446h0c4.754 0 8.608 3.854 8.608 8.608v0c0 4.754-3.854 8.608-8.608 8.608h-0c-4.754 0-8.608-3.854-8.608-8.608v-0c0-4.754 3.854-8.608 8.608-8.608z"></path>
<path fill="#fff" style="fill: var(--color1, #fff)" d="M33.572 0.534h0c4.754 0 8.608 3.854 8.608 8.608v12.912c0 4.754-3.854 8.608-8.608 8.608h-0c-4.754 0-8.608-3.854-8.608-8.608v-12.912c0-4.754 3.854-8.608 8.608-8.608z"></path>
</symbol>
<symbol id="icon-blue" viewBox="0 0 29 32">
<path fill="#4643d3" style="fill: var(--color1, #4643d3)" d="M15.133 30.528c0.003 0 0.007 0 0.011 0 0.48 0 0.91-0.211 1.203-0.545l0.002-0.002 11.22-12.847c0.227-0.275 0.364-0.631 0.364-1.018 0-0.887-0.719-1.606-1.606-1.606-0.464 0-0.882 0.197-1.175 0.511l-0.001 0.001-8.425 9.644v-21.425c-0.038-0.857-0.742-1.538-1.604-1.538s-1.567 0.68-1.604 1.534l-0 0.003v21.396l-8.428-9.615c-0.296-0.336-0.727-0.547-1.207-0.547-0.887 0-1.606 0.719-1.606 1.606 0 0.407 0.151 0.778 0.4 1.061l-0.002-0.002 11.113 12.684c0.291 0.425 0.78 0.704 1.332 0.704h0.009z"></path>
</symbol>
<symbol id="icon-orange" viewBox="0 0 29 32">
<path fill="#fe805c" style="fill: var(--color2, #fe805c)" d="M15.116 2.735c-0.004-0-0.008-0-0.012-0-0.481 0-0.912 0.212-1.206 0.548l-0.002 0.002-11.22 12.841c-0.266 0.286-0.43 0.671-0.43 1.094 0 0.887 0.719 1.606 1.606 1.606 0.499 0 0.945-0.228 1.239-0.585l0.002-0.003 8.425-9.638v21.425c0.038 0.857 0.742 1.538 1.604 1.538s1.567-0.68 1.604-1.534l0-0.003v-21.399l8.425 9.615c0.294 0.313 0.71 0.508 1.172 0.508 0.887 0 1.606-0.719 1.606-1.606 0-0.387-0.137-0.742-0.365-1.019l0.002 0.003-11.113-12.684c-0.292-0.429-0.778-0.707-1.329-0.707-0.003 0-0.006 0-0.010 0h0.001z"></path>
</symbol>
<symbol id="icon-star-full" viewBox="0 0 32 32">
<path d="M32 12.408l-11.056-1.607-4.944-10.018-4.944 10.018-11.056 1.607 8 7.798-1.889 11.011 9.889-5.199 9.889 5.199-1.889-11.011 8-7.798z"></path>
</symbol>
</defs>
</svg>
