<svg aria-hidden="true" style="position: absolute; width: 0; height: 0; overflow: hidden;" version="1.1" xmlns="http://www.w3.org/2000/svg" xmlns:xlink="http://www.w3.org/1999/xlink">
<defs>
<symbol id="icon-logo" viewBox="0 0 42 32">
<path fill="#fff" style="fill: var(--color1, #fff)" d="M8.608 13.446h0c4.754 0 8.608 3.854 8.608 8.608v0c0 4.754-3.854 8.608-8.608 8.608h-0c-4.754 0-8.608-3.854-8.608-8.608v-0c0-4.754 3.854-8.608 8.608-8.608z"></path>
<path fill="#fff" style="fill: var(--color1, #fff)" d="M33.572 0.534h0c4.754 0 8.608 3.854 8.608 8.608v12.912c0 4.754-3.854 8.608-8.608 8.608h-0c-4.754 0-8.608-3.854-8.608-8.608v-12.912c0-4.754 3.854-8.608 8.608-8.608z"></path>
</symbol>
<symbol id="icon-star" viewBox="0 0 32 32">
<path fill="#fff" style="fill: var(--color1, #fff)" opacity="0.5" d="M16 0.762l16.397-8.094c-3.081-6.241-9.437-10.192-16.397-10.192s-13.316 3.951-16.397 10.192l16.397 8.094zM20.709 10.301l-16.397 8.094c2.661 5.392 7.803 9.13 13.752 10l2.645-18.093zM31.238 11.84l12.758 13.099c4.985-4.855 6.782-12.119 4.636-18.739s-7.864-11.447-14.749-12.454l-2.645 18.093zM23.619 19.261l-12.758-13.099c-4.313 4.201-6.282 10.256-5.264 16.19l18.022-3.091zM25.417 29.745l-8.511 16.184c6.161 3.24 13.627 2.701 19.258-1.39s8.452-11.025 7.275-17.885l-18.023 3.091zM16 24.792l8.511-16.184c-5.328-2.802-11.694-2.802-17.022 0l8.511 16.184zM6.583 29.745l-18.023-3.091c-1.177 6.861 1.644 13.794 7.275 17.885s13.098 4.63 19.258 1.39l-8.511-16.184zM8.381 19.261l18.022 3.091c1.018-5.934-0.951-11.989-5.264-16.19l-12.759 13.099zM0.762 11.84l-2.645-18.093c-6.886 1.006-12.603 5.834-14.75 12.454s-0.349 13.884 4.636 18.739l12.759-13.099zM11.291 10.301l2.645 18.093c5.949-0.869 11.091-4.608 13.752-10l-16.397-8.094zM-0.397 8.856l4.709 9.539 32.794-16.187-4.709-9.539-32.794 16.187zM18.064 28.395l10.53 1.539 5.289-36.187-10.53-1.539-5.289 36.187zM18.48-1.259l-7.619 7.421 25.517 26.198 7.619-7.421-25.517-26.198zM5.596 22.352l1.798 10.484 36.045-6.182-1.798-10.484-36.045 6.182zM33.928 13.561l-9.417-4.952-17.022 32.368 9.417 4.952 17.022-32.368zM7.489 8.608l-9.417 4.952 17.022 32.368 9.417-4.952-17.022-32.368zM24.605 32.836l1.798-10.484-36.045-6.182-1.798 10.484 36.045 6.182zM21.14 6.162l-7.619-7.421-25.517 26.198 7.619 7.421 25.517-26.198zM3.407 29.933l10.53-1.539-5.289-36.187-10.53 1.539 5.289 36.187zM27.688 18.395l4.709-9.539-32.794-16.187-4.709 9.539 32.794 16.187z"></path>
</symbol>
</defs>
</svg>
