<svg aria-hidden="true" style="position: absolute; width: 0; height: 0; overflow: hidden;" version="1.1" xmlns="http://www.w3.org/2000/svg" xmlns:xlink="http://www.w3.org/1999/xlink">
<defs>
<symbol id="icon-logo" viewBox="0 0 42 32">
<path fill="#fff" style="fill: var(--color1, #fff)" d="M8.608 13.446h0c4.754 0 8.608 3.854 8.608 8.608v0c0 4.754-3.854 8.608-8.608 8.608h-0c-4.754 0-8.608-3.854-8.608-8.608v-0c0-4.754 3.854-8.608 8.608-8.608z"></path>
<path fill="#fff" style="fill: var(--color1, #fff)" d="M33.572 0.534h0c4.754 0 8.608 3.854 8.608 8.608v12.912c0 4.754-3.854 8.608-8.608 8.608h-0c-4.754 0-8.608-3.854-8.608-8.608v-12.912c0-4.754 3.854-8.608 8.608-8.608z"></path>
</symbol>
<symbol id="icon-star" viewBox="0 0 32 32">
<path fill="" style="" opacity="0.5" d="M16 0.762l16.397-8.094c-3.081-6.241-9.437-10.192-16.397-10.192s-13.316 3.951-16.397 10.192l16.397 8.094zM20.709 10.301l-16.397 8.094c2.661 5.392 7.803 9.13 13.752 10l2.645-18.093zM31.238 11.84l12.758 13.099c4.985-4.855 6.782-12.119 4.636-18.739s-7.864-11.447-14.749-12.454l-2.645 18.093zM23.619 19.261l-12.758-13.099c-4.313 4.201-6.282 10.256-5.264 16.19l18.022-3.091zM25.417 29.745l-8.511 16.184c6.161 3.24 13.627 2.701 19.258-1.39s8.452-11.025 7.275-17.885l-18.023 3.091zM16 24.792l8.511-16.184c-5.328-2.802-11.694-2.802-17.022 0l8.511 16.184zM6.583 29.745l-18.023-3.091c-1.177 6.861 1.644 13.794 7.275 17.885s13.098 4.63 19.258 1.39l-8.511-16.184zM8.381 19.261l18.022 3.091c1.018-5.934-0.951-11.989-5.264-16.19l-12.759 13.099zM0.762 11.84l-2.645-18.093c-6.886 1.006-12.603 5.834-14.75 12.454s-0.349 13.884 4.636 18.739l12.759-13.099zM11.291 10.301l2.645 18.093c5.949-0.869 11.091-4.608 13.752-10l-16.397-8.094zM-0.397 8.856l4.709 9.539 32.794-16.187-4.709-9.539-32.794 16.187zM18.064 28.395l10.53 1.539 5.289-36.187-10.53-1.539-5.289 36.187zM18.48-1.259l-7.619 7.421 25.517 26.198 7.619-7.421-25.517-26.198zM5.596 22.352l1.798 10.484 36.045-6.182-1.798-10.484-36.045 6.182zM33.928 13.561l-9.417-4.952-17.022 32.368 9.417 4.952 17.022-32.368zM7.489 8.608l-9.417 4.952 17.022 32.368 9.417-4.952-17.022-32.368zM24.605 32.836l1.798-10.484-36.045-6.182-1.798 10.484 36.045 6.182zM21.14 6.162l-7.619-7.421-25.517 26.198 7.619 7.421 25.517-26.198zM3.407 29.933l10.53-1.539-5.289-36.187-10.53 1.539 5.289 36.187zM27.688 18.395l4.709-9.539-32.794-16.187-4.709 9.539 32.794 16.187z"></path>
</symbol>
<symbol id="icon-blue" viewBox="0 0 29 32">
<path fill="#4643d3" style="fill: var(--color1, #4643d3)" d="M15.133 30.528c0.003 0 0.007 0 0.011 0 0.48 0 0.91-0.211 1.203-0.545l0.002-0.002 11.22-12.847c0.227-0.275 0.364-0.631 0.364-1.018 0-0.887-0.719-1.606-1.606-1.606-0.464 0-0.882 0.197-1.175 0.511l-0.001 0.001-8.425 9.644v-21.425c-0.038-0.857-0.742-1.538-1.604-1.538s-1.567 0.68-1.604 1.534l-0 0.003v21.396l-8.428-9.615c-0.296-0.336-0.727-0.547-1.207-0.547-0.887 0-1.606 0.719-1.606 1.606 0 0.407 0.151 0.778 0.4 1.061l-0.002-0.002 11.113 12.684c0.291 0.425 0.78 0.704 1.332 0.704h0.009z"></path>
</symbol>
<symbol id="icon-orange" viewBox="0 0 29 32">
<path fill="#fe805c" style="fill: var(--color2, #fe805c)" d="M15.116 2.735c-0.004-0-0.008-0-0.012-0-0.481 0-0.912 0.212-1.206 0.548l-0.002 0.002-11.22 12.841c-0.266 0.286-0.43 0.671-0.43 1.094 0 0.887 0.719 1.606 1.606 1.606 0.499 0 0.945-0.228 1.239-0.585l0.002-0.003 8.425-9.638v21.425c0.038 0.857 0.742 1.538 1.604 1.538s1.567-0.68 1.604-1.534l0-0.003v-21.399l8.425 9.615c0.294 0.313 0.71 0.508 1.172 0.508 0.887 0 1.606-0.719 1.606-1.606 0-0.387-0.137-0.742-0.365-1.019l0.002 0.003-11.113-12.684c-0.292-0.429-0.778-0.707-1.329-0.707-0.003 0-0.006 0-0.010 0h0.001z"></path>
</symbol>
<symbol id="icon-star-5" viewBox="0 0 32 32">
<path fill="#fff" style="fill: var(--color3, #fff)" opacity="0.5" d="M16 2.666l14.348-7.080c-2.672-5.327-8.090-8.919-14.348-8.919s-11.676 3.592-14.306 8.827l-0.042 0.092 14.348 7.078zM20.12 11.014l-14.348 7.080c2.328 4.644 6.724 7.955 11.946 8.741l0.088 0.011 2.314-15.832zM29.334 12.36l11.164 11.46c2.984-2.909 4.835-6.969 4.835-11.46 0-8.020-5.9-14.661-13.597-15.821l-0.088-0.011-2.314 15.832zM22.666 18.854l-11.164-11.462c-2.985 2.909-4.836 6.969-4.836 11.462 0 0.955 0.084 1.891 0.244 2.801l-0.014-0.096 15.77-2.704zM24.24 28.026l-7.448 14.162c2.159 1.159 4.724 1.839 7.448 1.839 8.837 0 16-7.163 16-16 0-0.956-0.084-1.892-0.244-2.802l0.014 0.096-15.77 2.704zM16 23.694l7.448-14.16c-2.159-1.159-4.724-1.839-7.448-1.839s-5.289 0.681-7.534 1.881l0.086-0.042 7.448 14.158zM7.76 28.026l-15.77-2.704c-0.147 0.813-0.23 1.75-0.23 2.705 0 8.837 7.163 16 16 16 2.724 0 5.289-0.681 7.534-1.881l-0.086 0.042-7.448-14.16zM9.334 18.854l15.77 2.704c0.146-0.813 0.23-1.749 0.23-2.704 0-4.492-1.851-8.552-4.833-11.458l-0.003-0.003-11.164 11.46zM2.666 12.36l-2.314-15.832c-7.785 1.17-13.687 7.812-13.687 15.832 0 4.493 1.852 8.553 4.833 11.459l0.003 0.003 11.164-11.462zM11.88 11.014l2.314 15.832c5.31-0.797 9.705-4.106 11.992-8.658l0.042-0.092-14.348-7.082zM1.652 9.748l4.12 8.348 28.696-14.164-4.12-8.348-28.696 14.164zM17.806 26.846l9.214 1.346 4.628-31.664-9.214-1.346-4.628 31.664zM18.17 0.898l-6.67 6.494 22.328 22.924 6.668-6.494-22.326-22.924zM6.896 21.56l1.574 9.174 31.54-5.41-1.574-9.174-31.54 5.41zM31.688 13.868l-8.24-4.334-14.896 28.322 8.24 4.334 14.896-28.322zM8.552 9.532l-8.24 4.334 14.896 28.322 8.24-4.334-14.896-28.32zM23.53 30.732l1.574-9.174-31.54-5.41-1.574 9.174 31.54 5.41zM20.496 7.392l-6.666-6.494-22.328 22.924 6.668 6.494 22.326-22.924zM4.98 28.192l9.214-1.346-4.628-31.666-9.214 1.346 4.628 31.666zM26.228 18.096l4.12-8.348-28.696-14.164-4.12 8.348 28.696 14.164z"></path>
</symbol>
<symbol id="icon-star-full" viewBox="0 0 32 32">
<path d="M32 12.408l-11.056-1.607-4.944-10.018-4.944 10.018-11.056 1.607 8 7.798-1.889 11.011 9.889-5.199 9.889 5.199-1.889-11.011 8-7.798z"></path>
</symbol>
</defs>
</svg>
